<svg width="128" height="37" viewBox="0 0 128 37" fill="none" xmlns="http://www.w3.org/2000/svg">
<g opacity="0.8">
<path d="M48.969 17.2784C47.9489 17.2784 46.9884 17.0929 46.0875 16.722C45.1998 16.351 44.4248 15.8409 43.7623 15.1918C43.0999 14.5293 42.5766 13.7609 42.1924 12.8865C41.8214 11.9988 41.6359 11.0449 41.6359 10.0248C41.6359 9.00466 41.828 8.05739 42.2122 7.18298C42.5965 6.30857 43.1264 5.54678 43.8021 4.89759C44.491 4.23516 45.2925 3.72509 46.2067 3.36738C47.1209 2.99642 48.1013 2.81094 49.1479 2.81094C50.3535 2.81094 51.4465 3.02954 52.4269 3.46675C53.4206 3.90395 54.242 4.50676 54.8912 5.27518L52.7648 7.40158C52.3143 6.81864 51.7844 6.38144 51.1749 6.08997C50.5655 5.7985 49.8766 5.65277 49.1081 5.65277C48.2867 5.65277 47.5514 5.83825 46.9023 6.20921C46.2531 6.56692 45.743 7.07699 45.372 7.73942C45.0143 8.3886 44.8355 9.1504 44.8355 10.0248C44.8355 10.8992 45.0143 11.6676 45.372 12.3301C45.7298 12.9925 46.22 13.5092 46.8426 13.8801C47.4653 14.2511 48.1807 14.4366 48.9889 14.4366C49.8103 14.4366 50.5059 14.2842 51.0756 13.9795C51.6585 13.6615 52.1023 13.2111 52.407 12.6282C52.725 12.032 52.884 11.3099 52.884 10.462L54.9508 11.8531L48.6908 11.7537V9.11065H56.0637V9.56773C56.0637 11.2503 55.7589 12.6679 55.1495 13.8205C54.5533 14.9599 53.7187 15.8211 52.6455 16.404C51.5856 16.9869 50.3601 17.2784 48.969 17.2784ZM56.2998 17.0598L61.8642 3.02954H64.6862L70.191 17.0598H66.8921L62.679 5.41429H63.8118L59.5391 17.0598H56.2998ZM59.4596 14.5161V11.9723H67.1107V14.5161H59.4596ZM71.6755 17.0598V3.02954H74.7956V17.0598H71.6755ZM74.0802 17.0598V14.3174H81.0158V17.0598H74.0802ZM82.8152 17.0598V3.02954H85.9353V17.0598H82.8152ZM85.2 17.0598V14.3571H92.8908V17.0598H85.2ZM85.2 11.1973V8.59396H92.1952V11.1973H85.2ZM85.2 5.71238V3.02954H92.7914V5.71238H85.2ZM95.0417 17.0598V3.02954H97.2278L98.1618 5.83162V17.0598H95.0417ZM104.72 17.0598L96.4527 6.46755L97.2278 3.02954L105.495 13.6218L104.72 17.0598ZM104.72 17.0598L103.885 14.2577V3.02954H107.005V17.0598H104.72ZM116.411 17.2983C115.351 17.2983 114.37 17.1128 113.47 16.7418C112.582 16.3709 111.8 15.8542 111.125 15.1918C110.449 14.5293 109.926 13.7609 109.555 12.8865C109.184 11.9988 108.998 11.0449 108.998 10.0248C108.998 8.99141 109.184 8.03751 109.555 7.16311C109.926 6.2887 110.442 5.5269 111.105 4.87772C111.767 4.21529 112.542 3.70522 113.43 3.34751C114.331 2.97655 115.311 2.79107 116.371 2.79107C117.418 2.79107 118.385 2.97655 119.272 3.34751C120.173 3.70522 120.955 4.21529 121.617 4.87772C122.293 5.5269 122.816 6.29532 123.187 7.18298C123.558 8.05739 123.744 9.01129 123.744 10.0447C123.744 11.0648 123.558 12.0187 123.187 12.9064C122.816 13.7808 122.3 14.5492 121.637 15.2116C120.975 15.8608 120.193 16.3709 119.292 16.7418C118.405 17.1128 117.444 17.2983 116.411 17.2983ZM116.371 14.4565C117.206 14.4565 117.934 14.271 118.557 13.9C119.193 13.5291 119.683 13.0124 120.028 12.3499C120.372 11.6743 120.544 10.8992 120.544 10.0248C120.544 9.36237 120.445 8.76619 120.246 8.23624C120.047 7.69305 119.763 7.22935 119.392 6.84514C119.021 6.44768 118.577 6.14959 118.06 5.95086C117.557 5.73888 116.994 5.63289 116.371 5.63289C115.536 5.63289 114.801 5.81837 114.165 6.18933C113.542 6.54705 113.059 7.05712 112.714 7.71955C112.37 8.36873 112.198 9.13715 112.198 10.0248C112.198 10.6872 112.297 11.29 112.496 11.8332C112.694 12.3764 112.973 12.8468 113.33 13.2442C113.701 13.6284 114.145 13.9265 114.662 14.1385C115.179 14.3505 115.748 14.4565 116.371 14.4565ZM42.3514 34.0598V20.0295H44.5771L50.1018 28.6345H48.969L54.4738 20.0295H56.7195V34.0598H53.5994V25.2959L54.1559 25.435L50.5589 31.0391H48.4921L44.915 25.435L45.4515 25.2959V34.0598H42.3514ZM66.1074 34.2983C65.0475 34.2983 64.0671 34.1128 63.1662 33.7418C62.2786 33.3709 61.4969 32.8542 60.8212 32.1918C60.1455 31.5293 59.6222 30.7609 59.2512 29.8865C58.8803 28.9988 58.6948 28.0449 58.6948 27.0248C58.6948 25.9914 58.8803 25.0375 59.2512 24.1631C59.6222 23.2887 60.1389 22.5269 60.8013 21.8777C61.4638 21.2153 62.2388 20.7052 63.1265 20.3475C64.0274 19.9765 65.0078 19.7911 66.0677 19.7911C67.1143 19.7911 68.0814 19.9765 68.9691 20.3475C69.87 20.7052 70.6517 21.2153 71.3141 21.8777C71.9898 22.5269 72.5131 23.2953 72.8841 24.183C73.255 25.0574 73.4405 26.0113 73.4405 27.0447C73.4405 28.0648 73.255 29.0187 72.8841 29.9064C72.5131 30.7808 71.9964 31.5492 71.334 32.2116C70.6715 32.8608 69.8899 33.3709 68.989 33.7418C68.1013 34.1128 67.1408 34.2983 66.1074 34.2983ZM66.0677 31.4565C66.9023 31.4565 67.631 31.271 68.2537 30.9C68.8896 30.5291 69.3798 30.0124 69.7243 29.3499C70.0687 28.6743 70.241 27.8992 70.241 27.0248C70.241 26.3624 70.1416 25.7662 69.9429 25.2362C69.7441 24.6931 69.4593 24.2293 69.0883 23.8451C68.7174 23.4477 68.2735 23.1496 67.7569 22.9509C67.2534 22.7389 66.6903 22.6329 66.0677 22.6329C65.233 22.6329 64.4977 22.8184 63.8618 23.1893C63.2391 23.547 62.7555 24.0571 62.411 24.7195C62.0666 25.3687 61.8943 26.1371 61.8943 27.0248C61.8943 27.6872 61.9937 28.29 62.1924 28.8332C62.3912 29.3764 62.6694 29.8468 63.0271 30.2442C63.3981 30.6284 63.8419 30.9265 64.3586 31.1385C64.8753 31.3505 65.445 31.4565 66.0677 31.4565ZM82.3124 34.2983C81.2525 34.2983 80.2721 34.1128 79.3712 33.7418C78.4835 33.3709 77.7018 32.8542 77.0262 32.1918C76.3505 31.5293 75.8272 30.7609 75.4562 29.8865C75.0852 28.9988 74.8998 28.0449 74.8998 27.0248C74.8998 25.9914 75.0852 25.0375 75.4562 24.1631C75.8272 23.2887 76.3439 22.5269 77.0063 21.8777C77.6687 21.2153 78.4438 20.7052 79.3314 20.3475C80.2323 19.9765 81.2127 19.7911 82.2726 19.7911C83.3193 19.7911 84.2864 19.9765 85.1741 20.3475C86.075 20.7052 86.8566 21.2153 87.5191 21.8777C88.1947 22.5269 88.7181 23.2953 89.089 24.183C89.46 25.0574 89.6455 26.0113 89.6455 27.0447C89.6455 28.0648 89.46 29.0187 89.089 29.9064C88.7181 30.7808 88.2014 31.5492 87.5389 32.2116C86.8765 32.8608 86.0948 33.3709 85.1939 33.7418C84.3063 34.1128 83.3458 34.2983 82.3124 34.2983ZM82.2726 31.4565C83.1073 31.4565 83.8359 31.271 84.4586 30.9C85.0946 30.5291 85.5848 30.0124 85.9292 29.3499C86.2737 28.6743 86.4459 27.8992 86.4459 27.0248C86.4459 26.3624 86.3466 25.7662 86.1478 25.2362C85.9491 24.6931 85.6643 24.2293 85.2933 23.8451C84.9223 23.4477 84.4785 23.1496 83.9618 22.9509C83.4584 22.7389 82.8953 22.6329 82.2726 22.6329C81.438 22.6329 80.7027 22.8184 80.0667 23.1893C79.444 23.547 78.9605 24.0571 78.616 24.7195C78.2715 25.3687 78.0993 26.1371 78.0993 27.0248C78.0993 27.6872 78.1987 28.29 78.3974 28.8332C78.5961 29.3764 78.8743 29.8468 79.2321 30.2442C79.603 30.6284 80.0468 30.9265 80.5635 31.1385C81.0802 31.3505 81.6499 31.4565 82.2726 31.4565ZM91.6261 34.0598V20.0295H93.8121L94.7461 22.8316V34.0598H91.6261ZM101.304 34.0598L93.0371 23.4676L93.8121 20.0295L102.079 30.6218L101.304 34.0598ZM101.304 34.0598L100.47 31.2577V20.0295H103.59V34.0598H101.304ZM108.791 35.1528L113.659 19.0558H116.302L111.434 35.1528H108.791ZM117.491 25.2164V22.454L126.771 26.3491V28.4358L117.491 32.3309V29.5884L124.526 26.8062V27.9986L117.491 25.2164Z" fill="#8B46A2"/>
<g clip-path="url(#clip0_5_483)">
<path fill-rule="evenodd" clip-rule="evenodd" d="M0.722305 0.578125H36.3663V36.2221H0.722305V0.578125ZM13.8934 33.9214C12.8732 33.9214 11.9127 33.7359 11.0118 33.3649C10.1242 32.994 9.34912 32.4839 8.68669 31.8347C8.02426 31.1723 7.50094 30.4039 7.11673 29.5295C6.74577 28.6418 6.56029 27.6879 6.56029 26.6678C6.56029 25.6476 6.75239 24.7003 7.1366 23.8259C7.52081 22.9515 8.05076 22.1897 8.72644 21.5405C9.41536 20.8781 10.2169 20.368 11.1311 20.0103C12.0452 19.6394 13.0256 19.4539 14.0722 19.4539C15.2779 19.4539 16.3709 19.6725 17.3513 20.1097C18.3449 20.5469 19.1663 21.1497 19.8155 21.9181L17.6891 24.0445C17.2387 23.4616 16.7087 23.0244 16.0993 22.7329C15.4898 22.4415 14.8009 22.2957 14.0325 22.2957C13.2111 22.2957 12.4758 22.4812 11.8266 22.8522C11.1774 23.2099 10.6674 23.7199 10.2964 24.3824C9.93868 25.0316 9.75983 25.7934 9.75983 26.6678C9.75983 27.5422 9.93868 28.3106 10.2964 28.973C10.6541 29.6354 11.1443 30.1521 11.767 30.5231C12.3897 30.8941 13.1051 31.0795 13.9133 31.0795C14.7347 31.0795 15.4302 30.9272 15.9999 30.6225C16.5829 30.3045 17.0267 29.854 17.3314 29.2711C17.4638 29.0228 17.5687 28.7527 17.646 28.4607L13.6152 28.3967V25.7536H20.988V26.2107C20.988 27.8933 20.6833 29.3109 20.0739 30.4635C19.4777 31.6029 18.643 32.464 17.5699 33.047C16.51 33.6299 15.2845 33.9214 13.8934 33.9214ZM22.4988 29.4079V33.6317L25.1543 32.5802C24.7741 31.7247 24.4949 30.9465 24.3166 30.2455C24.1384 29.5445 24.0077 28.695 23.9246 27.6969L23.1404 28.2138C22.9389 28.3445 22.7816 28.5168 22.6685 28.7306C22.5554 28.9445 22.4988 29.1702 22.4988 29.4079ZM25.2969 29.7108C25.4988 30.59 25.8078 31.4217 26.2236 32.2059H30.1801C30.5959 31.3985 30.9049 30.558 31.1068 29.6844C31.3088 28.8109 31.4098 27.9108 31.4098 26.9841C31.4103 25.4994 31.1163 24.1005 30.528 22.7873C29.9396 21.4742 29.1642 20.479 28.2018 19.8018C27.2399 20.4786 26.4648 21.4735 25.8764 22.7866C25.2881 24.0997 24.9939 25.4989 24.9939 26.9841C24.9939 27.9227 25.0949 28.8316 25.2969 29.7108ZM29.2091 26.7966C28.9297 27.076 28.5939 27.2157 28.2018 27.2157C27.8102 27.2162 27.4747 27.0767 27.1953 26.7973C26.9158 26.5178 26.7761 26.1821 26.7761 25.79C26.7756 25.3984 26.9151 25.0628 27.1945 24.7834C27.474 24.5039 27.8098 24.3642 28.2018 24.3642C27.1325 26.3246 29.2091 26.7966 29.2091 26.7966ZM31.2494 32.5802L33.9049 33.6317V29.4079C33.9054 29.1702 33.849 28.9445 33.7359 28.7306C33.6228 28.5168 33.4653 28.3445 33.2633 28.2138L32.4791 27.6969C32.396 28.695 32.2653 29.5445 32.087 30.2455C31.9088 30.9465 31.6296 31.7247 31.2494 32.5802Z" fill="#8B46A2"/>
<path d="M19.0698 44.7528C15.5384 44.7528 12.2134 44.1107 9.09479 42.8266C6.02204 41.5425 3.33911 39.7768 1.04602 37.5296C-1.24708 35.2365 -3.05863 32.5765 -4.38863 29.5496C-5.67276 26.4768 -6.31483 23.1748 -6.31483 19.6434C-6.31483 16.112 -5.64983 12.8329 -4.31983 9.806C-2.98984 6.77911 -1.15536 4.14204 1.1836 1.89481C3.56842 -0.398291 6.34307 -2.16398 9.50755 -3.40225C12.672 -4.68638 16.0658 -5.32845 19.6889 -5.32845C23.8623 -5.32845 27.646 -4.57173 31.0397 -3.05828C34.4794 -1.54484 37.3228 0.541881 39.5701 3.20187L32.2092 10.5627C30.6499 8.54479 28.8154 7.03135 26.7058 6.02238C24.5961 5.01342 22.2113 4.50894 19.5513 4.50894C16.7079 4.50894 14.1625 5.15101 11.9153 6.43515C9.66806 7.67342 7.90238 9.4391 6.61824 11.7322C5.37997 13.9794 4.76083 16.6165 4.76083 19.6434C4.76083 22.6703 5.37997 25.3303 6.61824 27.6234C7.85652 29.9165 9.55341 31.7051 11.7089 32.9892C13.8644 34.2734 16.341 34.9154 19.1386 34.9154C21.982 34.9154 24.3898 34.388 26.3618 33.3332C28.3797 32.2325 29.9161 30.6732 30.9709 28.6553C32.0716 26.5915 32.622 24.092 32.622 21.1568L39.7764 25.9723L18.1067 25.6284V16.4789H43.6288V18.0612C43.6288 23.8856 42.574 28.7929 40.4644 32.7828C38.4006 36.727 35.5113 39.708 31.7965 41.7259C28.1275 43.7439 23.8853 44.7528 19.0698 44.7528Z" fill="black" fill-opacity="0.05"/>
</g>
</g>
<defs>
<clipPath id="clip0_5_483">
<rect width="35.644" height="35.644" fill="white" transform="translate(0.722305 0.578125)"/>
</clipPath>
</defs>
</svg>
